<svg x="0" y="0" width="600" height="300" viewBox="0 0 700 350" xmlns="http://www.w3.org/2000/svg" xmlns:xlink="http://www.w3.org/1999/xlink" xmlns:fi="http://pattern.flaticon.com/"><rect x="0px" y="0px" width="100%" height="100%" opacity="1" fill="#46e9ff"/><defs><g transform="matrix(0.1190476194024086 0 0 0.1190476194024086 69 27)" id="L1_0"><path d="M479.781,476h-375c-40.317,0-73-32.683-73-73v-14c0-40.317,32.683-73,73-73h375V476z" fill="#ffebb7"/><rect x="47px" y="332px" width="40px" height="128px" fill="#5c546a"/><path d="M441.781,292h-426V180h426c12.15,0,22,9.85,22,22v68C463.781,282.15,453.931,292,441.781,292z" fill="#ffebb7"/><rect x="71px" y="36px" width="408px" height="120px" fill="#ffebb7"/><path d="M480,492H112c-52.934,0-96-43.062-96-96s43.066-96,96-96h368c8.836,0,16,7.164,16,16    s-7.164,16-16,16H112c-35.289,0-64,28.711-64,64s28.711,64,64,64h368c8.836,0,16,7.164,16,16S488.836,492,480,492z" fill="#00c37a"/><path d="M432,300H8c-4.422,0-8-3.578-8-8s3.578-8,8-8h424c13.234,0,24-10.766,24-24v-48     c0-13.234-10.766-24-24-24H8c-4.422,0-8-3.578-8-8s3.578-8,8-8h424c22.055,0,40,17.945,40,40v48C472,282.055,454.055,300,432,300     z" fill="#009bca"/><path d="M479.781,76h-368c-4.418,0-8-3.582-8-8l0,0c0-4.418,3.582-8,8-8h368V76z" fill="#e6be94"/><path d="M479.781,108h-368c-4.418,0-8-3.582-8-8l0,0c0-4.418,3.582-8,8-8h368V108z" fill="#e6be94"/><path d="M479.781,140h-368c-4.418,0-8-3.582-8-8l0,0c0-4.418,3.582-8,8-8h368V140z" fill="#e6be94"/><path d="M15.781,204h416c4.418,0,8,3.582,8,8l0,0c0,4.418-3.582,8-8,8h-416    C15.781,220,15.781,204,15.781,204z" fill="#e6be94"/><path d="M15.781,236h416c4.418,0,8,3.582,8,8l0,0c0,4.418-3.582,8-8,8h-416    C15.781,252,15.781,236,15.781,236z" fill="#e6be94"/><path d="M15.781,268h416c4.418,0,8,3.582,8,8l0,0c0,4.418-3.582,8-8,8h-416    C15.781,284,15.781,268,15.781,268z" fill="#e6be94"/><path d="M488,172H104c-26.469,0-48-21.531-48-48V60c0-26.469,21.531-48,48-48h384c8.836,0,16,7.164,16,16    s-7.164,16-16,16H104c-8.824,0-16,7.176-16,16v64c0,8.82,7.176,16,16,16h384c8.836,0,16,7.164,16,16S496.836,172,488,172z" fill="#ff4f19"/><path d="M111.781,444c-4.422,0-8,3.578-8,8s3.578,8,8,8h368v-16H111.781z" fill="#e6be94"/><path d="M111.781,412c-4.422,0-8,3.578-8,8s3.578,8,8,8h368v-16H111.781z" fill="#e6be94"/><path d="M111.781,380c-4.422,0-8,3.578-8,8s3.578,8,8,8h368v-16H111.781z" fill="#e6be94"/><path d="M111.781,348c-4.422,0-8,3.578-8,8s3.578,8,8,8h368v-16H111.781z" fill="#e6be94"/></g><g transform="matrix(0.12096773833036423 0 0 0.12096773833036423 232 102)" id="L1_1"><path d="M472,116.07H24c-13.234,0-24,10.766-24,24v264c0,13.234,10.766,24,24,24h448    c13.234,0,24-10.766,24-24v-264C496,126.836,485.234,116.07,472,116.07z" fill="#ff4f19"/><rect x="224px" y="388px" width="48px" height="40px" fill="#e3001e"/><path d="M464.219,364.07v24c0,4.418-3.582,8-8,8h-416c-4.418,0-8-3.582-8-8v-24l47.781-24l192,8l160-8    L464.219,364.07z" fill="#e6be8a"/><path d="M43.443,375.116c65.739-27.139,140.084-25.487,204.776,4.954v-288    C181.394,60.625,104.27,59.9,36.97,89.894c-2.896,1.291-4.751,4.222-4.751,7.393v270.515    C32.219,373.581,38.102,377.321,43.443,375.116z" fill="#ffebb7"/><path d="M248.219,380.07c64.692-30.442,139.037-32.093,204.776-4.954    c5.341,2.205,11.224-1.535,11.224-7.314V97.287c0-3.171-1.855-6.102-4.751-7.393c-67.3-29.994-144.425-29.269-211.249,2.176    V380.07z" fill="#ffd788"/><path d="M280.219,327.824c-3.406,0-6.563-2.188-7.633-5.605c-1.32-4.215,1.023-8.707,5.234-10.031     c8.094-2.543,16.422-4.715,24.758-6.461c4.313-0.906,8.563,1.855,9.469,6.188c0.906,4.324-1.859,8.563-6.188,9.469     c-7.828,1.641-15.648,3.684-23.242,6.07C281.82,327.703,281.008,327.824,280.219,327.824z" fill="#868491"/><path d="M432.219,327.824c-0.789,0-1.602-0.121-2.398-0.371c-30.187-9.48-61.477-13.031-92.969-10.523     c-4.469,0.32-8.258-2.941-8.609-7.344c-0.344-4.406,2.938-8.258,7.344-8.609c33.609-2.641,66.891,1.117,99.031,11.211     c4.211,1.324,6.555,5.816,5.234,10.031C438.781,325.637,435.625,327.824,432.219,327.824z" fill="#868491"/><path d="M432.219,295.73c-0.789,0-1.602-0.121-2.398-0.371c-48.156-15.125-99.047-15.125-147.203,0     c-4.234,1.324-8.719-1.023-10.031-5.234c-1.32-4.215,1.023-8.707,5.234-10.031c51.297-16.109,105.5-16.109,156.797,0     c4.211,1.324,6.555,5.816,5.234,10.031C438.781,293.543,435.625,295.73,432.219,295.73z" fill="#868491"/><path d="M280.219,263.824c-3.406,0-6.563-2.188-7.633-5.605c-1.32-4.215,1.023-8.707,5.234-10.031     c29.445-9.242,60-13.176,90.781-11.73c4.406,0.211,7.82,3.957,7.609,8.371c-0.203,4.422-3.891,7.797-8.375,7.613     c-28.883-1.363-57.578,2.332-85.219,11.012C281.82,263.703,281.008,263.824,280.219,263.824z" fill="#868491"/><path d="M432.219,263.824c-0.789,0-1.602-0.121-2.398-0.371c-10.109-3.176-20.539-5.723-31-7.566     c-4.352-0.77-7.258-4.918-6.484-9.27c0.766-4.348,4.922-7.258,9.266-6.488c11.141,1.965,22.242,4.676,33.016,8.059     c4.211,1.324,6.555,5.816,5.234,10.031C438.781,261.637,435.625,263.824,432.219,263.824z" fill="#868491"/><path d="M432.219,231.73c-0.789,0-1.602-0.121-2.398-0.371c-48.156-15.125-99.047-15.125-147.203,0     c-4.234,1.316-8.719-1.027-10.031-5.234c-1.32-4.215,1.023-8.707,5.234-10.031c51.297-16.109,105.5-16.109,156.797,0     c4.211,1.324,6.555,5.816,5.234,10.031C438.781,229.543,435.625,231.73,432.219,231.73z" fill="#868491"/><path d="M280.219,199.731c-3.406,0-6.563-2.188-7.633-5.605c-1.32-4.215,1.023-8.707,5.234-10.031     c16.094-5.055,32.75-8.562,49.523-10.422c4.453-0.535,8.352,2.684,8.836,7.066c0.484,4.391-2.68,8.348-7.07,8.832     c-15.742,1.75-31.391,5.043-46.492,9.789C281.82,199.609,281.008,199.731,280.219,199.731z" fill="#868491"/><path d="M432.219,199.731c-0.789,0-1.602-0.121-2.398-0.371c-22.586-7.098-46.039-10.887-69.719-11.258     c-4.422-0.07-7.945-3.707-7.875-8.125c0.07-4.414,3.93-8.133,8.125-7.875c25.219,0.398,50.211,4.434,74.266,11.992     c4.211,1.324,6.555,5.816,5.234,10.031C438.773,197.543,435.625,199.731,432.219,199.731z" fill="#868491"/><path d="M280.219,167.824c-3.406,0-6.563-2.188-7.633-5.605c-1.32-4.215,1.023-8.707,5.234-10.031     c34.859-10.949,70.937-14.465,107.281-10.422c4.391,0.484,7.555,4.441,7.07,8.832c-0.484,4.387-4.359,7.637-8.836,7.066     c-34.094-3.781-67.992-0.496-100.719,9.789C281.82,167.703,281.008,167.824,280.219,167.824z" fill="#868491"/><path d="M432.219,167.824c-0.789,0-1.602-0.121-2.398-0.371c-5.078-1.598-10.289-3.047-15.5-4.316     c-4.289-1.047-6.922-5.375-5.875-9.668s5.344-6.918,9.672-5.879c5.539,1.352,11.086,2.898,16.5,4.598     c4.211,1.324,6.555,5.816,5.234,10.031C438.781,165.637,435.625,167.824,432.219,167.824z" fill="#868491"/><path d="M280.219,135.731c-3.406,0-6.563-2.191-7.633-5.609c-1.32-4.219,1.023-8.707,5.242-10.027     c5.5-1.727,11.047-3.27,16.492-4.594c4.266-1.051,8.617,1.59,9.664,5.883c1.047,4.293-1.594,8.621-5.883,9.664     c-5.109,1.242-10.32,2.691-15.492,4.312C281.812,135.609,281.008,135.731,280.219,135.731z" fill="#868491"/><path d="M432.219,135.731c-0.789,0-1.602-0.121-2.398-0.371c-32.734-10.285-66.617-13.566-100.719-9.789     c-4.422,0.539-8.352-2.684-8.836-7.066c-0.484-4.391,2.68-8.348,7.07-8.832c36.328-4.043,72.414-0.527,107.281,10.422     c4.211,1.324,6.555,5.816,5.234,10.031C438.781,133.543,435.625,135.731,432.219,135.731z" fill="#868491"/><path d="M64.219,327.824c-3.406,0-6.562-2.188-7.633-5.605c-1.32-4.215,1.023-8.707,5.234-10.031     c8.094-2.543,16.422-4.715,24.758-6.461c4.32-0.906,8.563,1.855,9.469,6.188c0.906,4.324-1.859,8.563-6.188,9.469     c-7.828,1.641-15.648,3.684-23.242,6.07C65.82,327.703,65.008,327.824,64.219,327.824z" fill="#b4b6bc"/><path d="M216.219,327.824c-0.789,0-1.602-0.121-2.398-0.371c-30.18-9.48-61.477-13.031-92.969-10.523     c-4.531,0.32-8.258-2.941-8.609-7.344c-0.344-4.406,2.938-8.258,7.344-8.609c33.609-2.641,66.883,1.117,99.031,11.211     c4.211,1.324,6.555,5.816,5.234,10.031C222.781,325.637,219.625,327.824,216.219,327.824z" fill="#b4b6bc"/><path d="M216.219,295.73c-0.789,0-1.602-0.121-2.398-0.371c-48.156-15.125-99.047-15.125-147.203,0     c-4.25,1.324-8.719-1.023-10.031-5.234c-1.32-4.215,1.023-8.707,5.234-10.031c51.297-16.109,105.5-16.109,156.797,0     c4.211,1.324,6.555,5.816,5.234,10.031C222.781,293.543,219.625,295.73,216.219,295.73z" fill="#b4b6bc"/><path d="M64.219,263.824c-3.406,0-6.562-2.188-7.633-5.605c-1.32-4.215,1.023-8.707,5.234-10.031     c29.445-9.242,60.023-13.176,90.781-11.73c4.406,0.211,7.82,3.957,7.609,8.371c-0.211,4.422-3.938,7.797-8.375,7.613     c-28.891-1.363-57.578,2.332-85.219,11.012C65.82,263.703,65.008,263.824,64.219,263.824z" fill="#b4b6bc"/><path d="M216.219,263.824c-0.789,0-1.602-0.121-2.398-0.371c-10.109-3.176-20.539-5.723-31-7.566     c-4.352-0.77-7.258-4.918-6.484-9.27c0.758-4.348,4.93-7.258,9.266-6.488c11.141,1.965,22.242,4.676,33.016,8.059     c4.211,1.324,6.555,5.816,5.234,10.031C222.781,261.637,219.625,263.824,216.219,263.824z" fill="#b4b6bc"/><path d="M64.219,231.73c-3.406,0-6.562-2.188-7.633-5.605c-1.32-4.215,1.023-8.707,5.234-10.031     c45.477-14.277,94-15.867,140.289-4.594c4.297,1.047,6.93,5.375,5.883,9.668c-1.047,4.289-5.398,6.902-9.664,5.879     c-43.469-10.598-89.016-9.094-131.711,4.313C65.82,231.609,65.008,231.73,64.219,231.73z" fill="#b4b6bc"/><path d="M64.219,199.731c-3.406,0-6.562-2.188-7.633-5.605c-1.32-4.215,1.023-8.707,5.234-10.031     c16.094-5.055,32.75-8.562,49.523-10.422c4.414-0.535,8.352,2.684,8.836,7.066c0.484,4.391-2.68,8.348-7.07,8.832     c-15.742,1.75-31.391,5.043-46.492,9.789C65.82,199.609,65.008,199.731,64.219,199.731z" fill="#b4b6bc"/><path d="M200.227,195.273c-0.625,0-1.266-0.074-1.898-0.227c-17.734-4.32-35.984-6.66-54.227-6.945     c-4.422-0.07-7.945-3.707-7.875-8.125c0.07-4.414,3.523-8.133,8.125-7.875c19.437,0.309,38.867,2.797,57.758,7.398     c4.297,1.047,6.93,5.375,5.883,9.668C207.101,192.824,203.828,195.273,200.227,195.273z" fill="#b4b6bc"/><path d="M64.219,167.824c-3.406,0-6.562-2.188-7.633-5.605c-1.32-4.215,1.023-8.707,5.234-10.031     c34.867-10.949,70.945-14.465,107.281-10.422c4.391,0.484,7.555,4.441,7.07,8.832c-0.484,4.387-4.391,7.637-8.836,7.066     c-34.094-3.781-67.992-0.496-100.719,9.789C65.82,167.703,65.008,167.824,64.219,167.824z" fill="#b4b6bc"/><path d="M64.219,135.731c-3.406,0-6.562-2.191-7.633-5.609c-1.32-4.219,1.023-8.707,5.242-10.027     c5.5-1.727,11.047-3.27,16.492-4.594c4.258-1.051,8.617,1.59,9.664,5.883c1.047,4.293-1.594,8.621-5.883,9.664     c-5.109,1.242-10.32,2.691-15.492,4.312C65.812,135.609,65.008,135.731,64.219,135.731z" fill="#b4b6bc"/><path d="M200.227,131.27c-0.625,0-1.266-0.074-1.898-0.227c-27.961-6.809-56.633-8.641-85.227-5.473     c-4.391,0.539-8.352-2.676-8.836-7.066c-0.484-4.391,2.68-8.348,7.07-8.832c30.445-3.391,61-1.422,90.773,5.824     c4.297,1.047,6.93,5.375,5.883,9.668C207.101,128.82,203.828,131.27,200.227,131.27z" fill="#b4b6bc"/><path d="M200.219,216.064c0.001,3.194,3.561,5.1,6.219,3.328l17.781-11.854L242,219.392    c2.658,1.772,6.219-0.133,6.219-3.328V92.734c0-3.16-1.843-6.077-4.731-7.361c-12.457-5.54-25.259-9.983-38.262-13.418    c-2.537-0.67-5.03,1.292-5.029,3.916L200.219,216.064z" fill="#5d647f"/></g><g transform="matrix(1.034482717514038 0 0 1.034482717514038 175 286)" id="L1_2"><rect x="7px" y="0px" width="44px" height="58px" fill="#d75a4a"/><rect x="7px" y="0px" width="8px" height="58px" fill="#c03a2b"/><rect x="22px" y="10px" width="22px" height="12px" fill="#edeada"/><rect x="26px" y="13px" width="14px" height="2px" fill="#cec9ae"/><rect x="26px" y="17px" width="14px" height="2px" fill="#cec9ae"/></g><g transform="matrix(0.11708733439445496 0 0 0.11708733439445496 8 228)" id="L1_3"><path d="M424,116.219h-40c-4.418,0-8,3.582-8,8v216h56v-216C432,119.801,428.418,116.219,424,116.219z" fill="#ff4f19"/><path d="M404,116.219h-20c-4.418,0-8,3.582-8,8v216h28V116.219z" fill="#e3001e"/><path d="M168.219,84.219H120c-4.418,0-8,3.582-8,8v248h64.219v-248    C176.219,87.801,172.637,84.219,168.219,84.219z" fill="#e3001e"/><path d="M168.219,84.219H144v256h32.219v-248C176.219,87.801,172.637,84.219,168.219,84.219z" fill="#ff4f19"/><path d="M80,452.219c-2.977,0-5.781-1.668-7.156-4.422l-40-80c-1.977-3.953-0.375-8.758,3.578-10.734     c3.945-1.969,8.758-0.375,10.734,3.578L72,410.332v-46.113c0-4.418,3.578-8,8-8s8,3.582,8,8v80c0,3.711-2.555,6.934-6.164,7.785     C81.227,452.149,80.609,452.219,80,452.219z" fill="#868491"/><path d="M432.219,452.219c-0.609,0-1.227-0.07-1.836-0.215c-3.609-0.852-6.164-4.074-6.164-7.785v-80     c0-4.418,3.578-8,8-8s8,3.582,8,8v46.113l24.844-49.691c1.984-3.953,6.781-5.547,10.734-3.578     c3.953,1.977,5.555,6.781,3.578,10.734l-40,80C438,450.551,435.195,452.219,432.219,452.219z" fill="#868491"/><path d="M248,84.219h-16c-4.418,0-8,3.582-8,8v248h32v-248C256,87.801,252.418,84.219,248,84.219z" fill="#5d647f"/><path d="M368,84.219h-16c-4.418,0-8,3.582-8,8v248h32v-248C376,87.801,372.418,84.219,368,84.219z" fill="#4bb9ec"/><path d="M104,108.219H88c-4.418,0-8,3.582-8,8v223.125c0,0.483,0.392,0.875,0.875,0.875H112v-224    C112,111.801,108.418,108.219,104,108.219z" fill="#ff9100"/><path d="M72,132.219H48c-4.418,0-8,3.582-8,8v200h40v-200C80,135.801,76.418,132.219,72,132.219z" fill="#00c37a"/><path d="M464,100.219h-24c-4.418,0-8,3.582-8,8v232h40v-232C472,103.801,468.418,100.219,464,100.219z" fill="#5d647f"/><path d="M336,60.219h-40c-4.418,0-8,3.582-8,8v272h56v-272C344,63.801,340.418,60.219,336,60.219z" fill="#ff9100"/><path d="M280,116.219h-16c-4.418,0-8,3.582-8,8v216h32v-216C288,119.801,284.418,116.219,280,116.219z" fill="#00c37a"/><path d="M216,100.219h-32c-4.418,0-8,3.582-8,8v232h48v-232C224,103.801,220.418,100.219,216,100.219z" fill="#4bb9ec"/><path d="M504.438,372.219H8c-4.418,0-8-3.582-8-8v-16c0-4.418,3.582-8,8-8h496.438c4.418,0,8,3.582,8,8v16    C512.438,368.637,508.856,372.219,504.438,372.219z" fill="#e6be8a"/><rect x="112px" y="108px" width="32px" height="16px" fill="#5d647f"/><rect x="144px" y="108px" width="32px" height="16px" fill="#868491"/><rect x="112px" y="300px" width="32px" height="16px" fill="#5d647f"/><rect x="144px" y="300px" width="32px" height="16px" fill="#868491"/><rect x="272px" y="140px" width="16px" height="16px" fill="#00a077"/><rect x="272px" y="292px" width="16px" height="16px" fill="#00a077"/><rect x="376px" y="140px" width="28px" height="16px" fill="#ff9100"/><rect x="376px" y="292px" width="28px" height="16px" fill="#ff9100"/><rect x="404px" y="140px" width="28px" height="16px" fill="#ffcd00"/><rect x="404px" y="292px" width="28px" height="16px" fill="#ffcd00"/><path d="M176,108.219v232h24v-240h-16C179.582,100.219,176,103.801,176,108.219z" fill="#009bca"/><path d="M80,340.219h16v-232h-8c-4.418,0-8,3.582-8,8V340.219z" fill="#ff4f19"/><path d="M40,340.219h20v-208H46.998c-3.865,0-6.998,3.133-6.998,6.998V340.219z" fill="#00a077"/><path d="M224,340.219h16v-256h-8c-4.418,0-8,3.582-8,8V340.219z" fill="#5c546a"/><path d="M256,340.219h16v-224h-8c-4.418,0-8,3.582-8,8V340.219z" fill="#00a077"/><rect x="256px" y="140px" width="16px" height="16px" fill="#5d647f"/><rect x="256px" y="292px" width="16px" height="16px" fill="#5d647f"/><path d="M288,340.219h28v-280h-20c-4.418,0-8,3.582-8,8V340.219z" fill="#ff4f19"/><path d="M360,84.219h-8c-4.418,0-8,3.582-8,8v248h16V84.219z" fill="#009bca"/><path d="M452.22,100.219H440c-4.418,0-8,3.582-8,8v232h20.22V100.219z" fill="#5c546a"/><path d="M0,356.219v8c0,4.418,3.582,8,8,8h496.438c4.418,0,8-3.582,8-8v-8H0z" fill="#c9a07c"/></g></defs><g fi:class="KUsePattern"><pattern id="pattern_L1_0" width="350" height="350" patternUnits="userSpaceOnUse"><use xlink:href="#L1_0" x="-350" y="-350"/><use xlink:href="#L1_0" x="0" y="-350"/><use xlink:href="#L1_0" x="350" y="-350"/><use xlink:href="#L1_0" x="-350" y="0"/><use xlink:href="#L1_0" x="0" y="0"/><use xlink:href="#L1_0" x="350" y="0"/><use xlink:href="#L1_0" x="-350" y="350"/><use xlink:href="#L1_0" x="0" y="350"/><use xlink:href="#L1_0" x="350" y="350"/></pattern><rect x="0" y="0" width="100%" height="100%" fill="url(#pattern_L1_0)"/></g><g fi:class="KUsePattern"><pattern id="pattern_L1_1" width="350" height="350" patternUnits="userSpaceOnUse"><use xlink:href="#L1_1" x="-350" y="-350"/><use xlink:href="#L1_1" x="0" y="-350"/><use xlink:href="#L1_1" x="350" y="-350"/><use xlink:href="#L1_1" x="-350" y="0"/><use xlink:href="#L1_1" x="0" y="0"/><use xlink:href="#L1_1" x="350" y="0"/><use xlink:href="#L1_1" x="-350" y="350"/><use xlink:href="#L1_1" x="0" y="350"/><use xlink:href="#L1_1" x="350" y="350"/></pattern><rect x="0" y="0" width="100%" height="100%" fill="url(#pattern_L1_1)"/></g><g fi:class="KUsePattern"><pattern id="pattern_L1_2" width="350" height="350" patternUnits="userSpaceOnUse"><use xlink:href="#L1_2" x="-350" y="-350"/><use xlink:href="#L1_2" x="0" y="-350"/><use xlink:href="#L1_2" x="350" y="-350"/><use xlink:href="#L1_2" x="-350" y="0"/><use xlink:href="#L1_2" x="0" y="0"/><use xlink:href="#L1_2" x="350" y="0"/><use xlink:href="#L1_2" x="-350" y="350"/><use xlink:href="#L1_2" x="0" y="350"/><use xlink:href="#L1_2" x="350" y="350"/></pattern><rect x="0" y="0" width="100%" height="100%" fill="url(#pattern_L1_2)"/></g><g fi:class="KUsePattern"><pattern id="pattern_L1_3" width="350" height="350" patternUnits="userSpaceOnUse"><use xlink:href="#L1_3" x="-350" y="-350"/><use xlink:href="#L1_3" x="0" y="-350"/><use xlink:href="#L1_3" x="350" y="-350"/><use xlink:href="#L1_3" x="-350" y="0"/><use xlink:href="#L1_3" x="0" y="0"/><use xlink:href="#L1_3" x="350" y="0"/><use xlink:href="#L1_3" x="-350" y="350"/><use xlink:href="#L1_3" x="0" y="350"/><use xlink:href="#L1_3" x="350" y="350"/></pattern><rect x="0" y="0" width="100%" height="100%" fill="url(#pattern_L1_3)"/></g></svg>